<svg version="1.1" xmlns:xlink="http://www.w3.org/1999/xlink" xmlns="http://www.w3.org/2000/svg" viewBox="0 360.90000000000003 900 90.9" id="visual" style="max-height: 500px" width="900" height="90.9"><path fill="#ffffff" d="M0 431L41 431L41 437L82 437L82 390L123 390L123 437L164 437L164 373L205 373L205 439L245 439L245 418L286 418L286 373L327 373L327 397L368 397L368 415L409 415L409 431L450 431L450 391L491 391L491 394L532 394L532 415L573 415L573 373L614 373L614 390L655 390L655 414L695 414L695 392L736 392L736 435L777 435L777 395L818 395L818 395L859 395L859 376L900 376L900 413L900 451L900 451L859 451L859 451L818 451L818 451L777 451L777 451L736 451L736 451L695 451L695 451L655 451L655 451L614 451L614 451L573 451L573 451L532 451L532 451L491 451L491 451L450 451L450 451L409 451L409 451L368 451L368 451L327 451L327 451L286 451L286 451L245 451L245 451L205 451L205 451L164 451L164 451L123 451L123 451L82 451L82 451L41 451L41 451L0 451Z"/><path fill="#e6e6e6" d="M0 421L41 421L41 425L82 425L82 421L123 421L123 415L164 415L164 396L205 396L205 384L245 384L245 424L286 424L286 406L327 406L327 435L368 435L368 381L409 381L409 372L450 372L450 436L491 436L491 375L532 375L532 424L573 424L573 404L614 404L614 411L655 411L655 406L695 406L695 381L736 381L736 389L777 389L777 404L818 404L818 397L859 397L859 416L900 416L900 415L900 451L900 451L859 451L859 451L818 451L818 451L777 451L777 451L736 451L736 451L695 451L695 451L655 451L655 451L614 451L614 451L573 451L573 451L532 451L532 451L491 451L491 451L450 451L450 451L409 451L409 451L368 451L368 451L327 451L327 451L286 451L286 451L245 451L245 451L205 451L205 451L164 451L164 451L123 451L123 451L82 451L82 451L41 451L41 451L0 451Z"/><path fill="#cecece" d="M0 420L41 420L41 427L82 427L82 418L123 418L123 382L164 382L164 385L205 385L205 403L245 403L245 413L286 413L286 420L327 420L327 416L368 416L368 406L409 406L409 404L450 404L450 444L491 444L491 397L532 397L532 442L573 442L573 431L614 431L614 429L655 429L655 435L695 435L695 432L736 432L736 436L777 436L777 405L818 405L818 445L859 445L859 411L900 411L900 412L900 451L900 451L859 451L859 451L818 451L818 451L777 451L777 451L736 451L736 451L695 451L695 451L655 451L655 451L614 451L614 451L573 451L573 451L532 451L532 451L491 451L491 451L450 451L450 451L409 451L409 451L368 451L368 451L327 451L327 451L286 451L286 451L245 451L245 451L205 451L205 451L164 451L164 451L123 451L123 451L82 451L82 451L41 451L41 451L0 451Z"/><path fill="#b6b6b6" d="M0 386L41 386L41 395L82 395L82 408L123 408L123 434L164 434L164 387L205 387L205 422L245 422L245 404L286 404L286 416L327 416L327 438L368 438L368 430L409 430L409 415L450 415L450 399L491 399L491 403L532 403L532 420L573 420L573 425L614 425L614 423L655 423L655 433L695 433L695 404L736 404L736 391L777 391L777 389L818 389L818 400L859 400L859 436L900 436L900 444L900 451L900 451L859 451L859 451L818 451L818 451L777 451L777 451L736 451L736 451L695 451L695 451L655 451L655 451L614 451L614 451L573 451L573 451L532 451L532 451L491 451L491 451L450 451L450 451L409 451L409 451L368 451L368 451L327 451L327 451L286 451L286 451L245 451L245 451L205 451L205 451L164 451L164 451L123 451L123 451L82 451L82 451L41 451L41 451L0 451Z"/><path fill="#9f9f9f" d="M0 434L41 434L41 439L82 439L82 405L123 405L123 396L164 396L164 419L205 419L205 397L245 397L245 414L286 414L286 438L327 438L327 431L368 431L368 422L409 422L409 409L450 409L450 442L491 442L491 410L532 410L532 427L573 427L573 407L614 407L614 403L655 403L655 434L695 434L695 413L736 413L736 405L777 405L777 393L818 393L818 411L859 411L859 433L900 433L900 437L900 451L900 451L859 451L859 451L818 451L818 451L777 451L777 451L736 451L736 451L695 451L695 451L655 451L655 451L614 451L614 451L573 451L573 451L532 451L532 451L491 451L491 451L450 451L450 451L409 451L409 451L368 451L368 451L327 451L327 451L286 451L286 451L245 451L245 451L205 451L205 451L164 451L164 451L123 451L123 451L82 451L82 451L41 451L41 451L0 451Z"/><path fill="#888888" d="M0 413L41 413L41 436L82 436L82 420L123 420L123 402L164 402L164 400L205 400L205 411L245 411L245 446L286 446L286 403L327 403L327 428L368 428L368 430L409 430L409 444L450 444L450 419L491 419L491 405L532 405L532 425L573 425L573 431L614 431L614 438L655 438L655 413L695 413L695 436L736 436L736 431L777 431L777 427L818 427L818 443L859 443L859 421L900 421L900 434L900 451L900 451L859 451L859 451L818 451L818 451L777 451L777 451L736 451L736 451L695 451L695 451L655 451L655 451L614 451L614 451L573 451L573 451L532 451L532 451L491 451L491 451L450 451L450 451L409 451L409 451L368 451L368 451L327 451L327 451L286 451L286 451L245 451L245 451L205 451L205 451L164 451L164 451L123 451L123 451L82 451L82 451L41 451L41 451L0 451Z"/><path fill="#727272" d="M0 442L41 442L41 446L82 446L82 422L123 422L123 428L164 428L164 413L205 413L205 422L245 422L245 409L286 409L286 422L327 422L327 434L368 434L368 430L409 430L409 425L450 425L450 438L491 438L491 441L532 441L532 431L573 431L573 439L614 439L614 409L655 409L655 410L695 410L695 408L736 408L736 438L777 438L777 424L818 424L818 411L859 411L859 445L900 445L900 420L900 451L900 451L859 451L859 451L818 451L818 451L777 451L777 451L736 451L736 451L695 451L695 451L655 451L655 451L614 451L614 451L573 451L573 451L532 451L532 451L491 451L491 451L450 451L450 451L409 451L409 451L368 451L368 451L327 451L327 451L286 451L286 451L245 451L245 451L205 451L205 451L164 451L164 451L123 451L123 451L82 451L82 451L41 451L41 451L0 451Z"/><path fill="#5d5d5d" d="M0 433L41 433L41 416L82 416L82 426L123 426L123 419L164 419L164 428L205 428L205 416L245 416L245 435L286 435L286 444L327 444L327 416L368 416L368 415L409 415L409 446L450 446L450 426L491 426L491 425L532 425L532 414L573 414L573 414L614 414L614 443L655 443L655 422L695 422L695 438L736 438L736 430L777 430L777 437L818 437L818 413L859 413L859 423L900 423L900 445L900 451L900 451L859 451L859 451L818 451L818 451L777 451L777 451L736 451L736 451L695 451L695 451L655 451L655 451L614 451L614 451L573 451L573 451L532 451L532 451L491 451L491 451L450 451L450 451L409 451L409 451L368 451L368 451L327 451L327 451L286 451L286 451L245 451L245 451L205 451L205 451L164 451L164 451L123 451L123 451L82 451L82 451L41 451L41 451L0 451Z"/><path fill="#494949" d="M0 425L41 425L41 421L82 421L82 444L123 444L123 424L164 424L164 431L205 431L205 426L245 426L245 433L286 433L286 435L327 435L327 437L368 437L368 434L409 434L409 439L450 439L450 430L491 430L491 430L532 430L532 442L573 442L573 430L614 430L614 436L655 436L655 427L695 427L695 433L736 433L736 432L777 432L777 423L818 423L818 429L859 429L859 441L900 441L900 438L900 451L900 451L859 451L859 451L818 451L818 451L777 451L777 451L736 451L736 451L695 451L695 451L655 451L655 451L614 451L614 451L573 451L573 451L532 451L532 451L491 451L491 451L450 451L450 451L409 451L409 451L368 451L368 451L327 451L327 451L286 451L286 451L245 451L245 451L205 451L205 451L164 451L164 451L123 451L123 451L82 451L82 451L41 451L41 451L0 451Z"/><path fill="#353535" d="M0 440L41 440L41 439L82 439L82 443L123 443L123 435L164 435L164 440L205 440L205 432L245 432L245 445L286 445L286 440L327 440L327 437L368 437L368 434L409 434L409 434L450 434L450 445L491 445L491 445L532 445L532 441L573 441L573 439L614 439L614 438L655 438L655 430L695 430L695 428L736 428L736 434L777 434L777 439L818 439L818 444L859 444L859 438L900 438L900 444L900 451L900 451L859 451L859 451L818 451L818 451L777 451L777 451L736 451L736 451L695 451L695 451L655 451L655 451L614 451L614 451L573 451L573 451L532 451L532 451L491 451L491 451L450 451L450 451L409 451L409 451L368 451L368 451L327 451L327 451L286 451L286 451L245 451L245 451L205 451L205 451L164 451L164 451L123 451L123 451L82 451L82 451L41 451L41 451L0 451Z"/><path fill="#232323" d="M0 443L41 443L41 448L82 448L82 436L123 436L123 441L164 441L164 438L205 438L205 440L245 440L245 447L286 447L286 441L327 441L327 437L368 437L368 442L409 442L409 447L450 447L450 441L491 441L491 435L532 435L532 437L573 437L573 445L614 445L614 438L655 438L655 436L695 436L695 439L736 439L736 435L777 435L777 440L818 440L818 444L859 444L859 442L900 442L900 443L900 451L900 451L859 451L859 451L818 451L818 451L777 451L777 451L736 451L736 451L695 451L695 451L655 451L655 451L614 451L614 451L573 451L573 451L532 451L532 451L491 451L491 451L450 451L450 451L409 451L409 451L368 451L368 451L327 451L327 451L286 451L286 451L245 451L245 451L205 451L205 451L164 451L164 451L123 451L123 451L82 451L82 451L41 451L41 451L0 451Z"/></svg>